<?xml version="1.0" encoding="UTF-8"?>
<!--Generator: Apple Native CoreSVG 232.5-->
<!DOCTYPE svg
PUBLIC "-//W3C//DTD SVG 1.1//EN"
       "http://www.w3.org/Graphics/SVG/1.1/DTD/svg11.dtd">
<svg version="1.1" xmlns="http://www.w3.org/2000/svg" xmlns:xlink="http://www.w3.org/1999/xlink" width="35.7531" height="32.733">
 <g>
  <rect height="32.733" opacity="0" width="35.7531" x="0" y="0"/>
  <path d="M9.1317 11.7428C8.50801 12.9135 8.11539 14.2572 8.00984 15.7069C7.94457 16.5712 7.64295 16.9413 6.82488 17.1498C4.45591 17.7824 3.10862 19.2982 3.10862 21.409C3.10862 23.8651 4.89471 25.4937 7.89088 25.4937L22.8826 25.4937L25.2386 27.8497L7.92194 27.8497C3.3656 27.8497 0.749415 24.9408 0.749415 21.3314C0.749415 18.2251 2.7319 15.7587 5.65695 14.9179C5.81862 13.0794 6.4057 11.3836 7.31254 9.92362ZM26.5243 10.891C31.8469 10.8878 35.7531 14.5317 35.7531 19.3469C35.7531 22.351 34.2411 24.9352 31.8962 26.4407L30.198 24.7425C32.1123 23.7178 33.3784 21.7347 33.3784 19.4153C33.3784 16.0954 30.7963 13.3247 26.2144 13.3247C25.3279 13.3247 24.8986 13.0852 24.5595 12.3666C22.9207 8.99234 20.1782 7.02793 16.6612 7.02793C15.4426 7.02793 14.2842 7.29256 13.2372 7.78177L11.4612 6.00575C13.0159 5.14913 14.7916 4.67188 16.6612 4.67188C21.0052 4.67188 24.5712 7.03393 26.5243 10.891Z" fill="#ffffff" fill-opacity="0.85"/>
  <path d="M5.25447 2.22304L32.1079 29.0765L32.1079 29.0765C32.5523 29.5209 32.5523 30.2413 32.1079 30.6857L32.1079 30.6857L32.1079 30.6857C31.6635 31.1301 30.9431 31.1301 30.4987 30.6857L3.64524 3.83227L3.64524 3.83227C3.20087 3.38789 3.20087 2.66742 3.64524 2.22304L3.64524 2.22304L3.64524 2.22304C4.08962 1.77867 4.81009 1.77867 5.25447 2.22304Z" fill="#ffffff" fill-opacity="0.85"/>
 </g>
</svg>
