<?xml version="1.0" encoding="UTF-8"?>
<!--Generator: Apple Native CoreSVG 232.5-->
<!DOCTYPE svg
PUBLIC "-//W3C//DTD SVG 1.1//EN"
       "http://www.w3.org/Graphics/SVG/1.1/DTD/svg11.dtd">
<svg version="1.1" xmlns="http://www.w3.org/2000/svg" xmlns:xlink="http://www.w3.org/1999/xlink" width="37.3647" height="34.2463">
 <g>
  <rect height="34.2463" opacity="0" width="37.3647" x="0" y="0"/>
  <path d="M10.0187 13.0838C9.59587 14.0436 9.30718 15.1209 9.16882 16.2899C9.04729 17.278 8.75349 17.6349 7.8948 17.8515C5.47711 18.4846 4.18716 19.882 4.18716 21.8845C4.18716 24.1784 5.85347 25.6348 8.64154 25.6348L22.5697 25.6348L26.0059 29.0709L8.56451 29.0709C3.82196 29.0709 0.749475 25.9251 0.749475 21.7987C0.749475 18.5668 2.73577 15.9342 5.88839 14.9123C6.09179 13.2728 6.60341 11.7602 7.36775 10.4328ZM27.76 10.7399C33.3031 10.7384 37.3647 14.737 37.3647 19.9358C37.3647 23.0869 35.8349 25.803 33.4383 27.4305L30.952 24.9443C32.7584 24.0115 33.9184 22.2034 33.9184 20.0246C33.9184 16.6065 31.3641 14.1676 26.8842 14.1676C25.9367 14.1676 25.4965 13.9167 25.1053 13.1383C23.4045 9.83865 20.7577 7.98412 17.4924 7.98412C16.4392 7.98412 15.4478 8.17366 14.543 8.53525L11.9506 5.94281C13.599 5.04322 15.4899 4.54798 17.4924 4.54798C22.1109 4.54798 25.7249 6.78451 27.76 10.7399Z" fill="#ffffff" fill-opacity="0.85"/>
  <path d="M5.73346 2.50474L33.3886 30.1599L33.3886 30.1599C33.8739 30.6452 33.8739 31.432 33.3886 31.9172L33.3886 31.9172L33.3886 31.9172C32.9033 32.4025 32.1165 32.4025 31.6313 31.9172L3.97611 4.26209L3.97611 4.26209C3.49083 3.77681 3.49083 2.99002 3.97611 2.50474L3.97611 2.50474L3.97611 2.50474C4.46139 2.01946 5.24818 2.01946 5.73346 2.50474Z" fill="#ffffff" fill-opacity="0.85"/>
 </g>
</svg>
