<?xml version="1.0" encoding="UTF-8"?>
<!--Generator: Apple Native CoreSVG 232.5-->
<!DOCTYPE svg
PUBLIC "-//W3C//DTD SVG 1.1//EN"
       "http://www.w3.org/Graphics/SVG/1.1/DTD/svg11.dtd">
<svg version="1.1" xmlns="http://www.w3.org/2000/svg" xmlns:xlink="http://www.w3.org/1999/xlink" width="35.5318" height="31.78">
 <g>
  <rect height="31.78" opacity="0" width="35.5318" x="0" y="0"/>
  <path d="M8.94022 10.5404C8.16633 11.8416 7.67777 13.3588 7.56774 14.9943C7.51787 15.6841 7.27271 15.9874 6.58298 16.1702C4.07027 16.8285 2.56899 18.5291 2.56899 20.8195C2.56899 23.4091 4.46289 25.2841 7.71058 25.2841L23.6839 25.2841L25.4958 27.096L7.73137 27.096C3.30337 27.096 0.748782 24.2589 0.748782 20.7676C0.748782 17.6254 2.85446 15.2514 5.76412 14.4414C5.93161 12.4916 6.57397 10.6947 7.57453 9.1747ZM26.462 10.5223C31.6564 10.514 35.5318 14.0655 35.5318 18.778C35.5318 21.924 33.8104 24.6129 31.1994 26.0232L29.8596 24.6834C32.1542 23.6692 33.7012 21.4413 33.7012 18.8362C33.7012 15.2852 30.8419 12.3862 26.3164 12.3862C25.5685 12.3862 25.2008 12.1826 24.9182 11.5718C23.2589 8.15136 20.4035 6.00215 16.5785 6.00215C15.0514 6.00215 13.6016 6.41663 12.3316 7.15536L10.9848 5.80852C12.6218 4.77707 14.5403 4.19023 16.5785 4.19023C21.0559 4.19023 24.5243 6.62414 26.462 10.5223Z" fill="#ffffff" fill-opacity="0.85"/>
  <path d="M4.98312 1.94796L31.7958 28.7606L31.7958 28.7606C32.1402 29.105 32.1402 29.6634 31.7958 30.0078L31.7958 30.0078L31.7958 30.0078C31.4514 30.3521 30.893 30.3521 30.5487 30.0078L3.736 3.19509L3.736 3.19509C3.39161 2.8507 3.39161 2.29235 3.736 1.94796L3.736 1.94796L3.736 1.94796C4.08038 1.60358 4.63874 1.60358 4.98312 1.94796Z" fill="#ffffff" fill-opacity="0.85"/>
 </g>
</svg>
